# xmcd
# 
# Track frame offsets:
#     150
#     19570
#     33537
#     46860
#     62065
#     74402
#     91495
#     106195
#     119937
#     134370
# 
# Disc length: 1995
# 
# Revision: 6
# Processed by: cddbd v1.5.2PL0 Copyright (c) Steve Scherf et al.
# Submitted via: fre:ac v1.0.17
# 
DISCID=8c07c90a
DTITLE=Kris Kristofferson - T H E   S I L V E R   T O N G U E D   D E V I L   A N D   I         1 9 7 1
DYEAR=1971
DGENRE=Country Folk
TTITLE0=The Silver Tongued Devil And I
TTITLE1=Jody And The Kid
TTITLE2=Billy Dee
TTITLE3=Good Christian Soldier
TTITLE4=Breakdown (A Long Way From Home)
TTITLE5=Loving Her Was Easier (Than Anything I'll Ever Do Again)
TTITLE6=The Taker
TTITLE7=When I Loved Her
TTITLE8=The Pilgrim-Chapter 33
TTITLE9=Epitaph (Black And Blue)
EXTD=
EXTT0=
EXTT1=
EXTT2=
EXTT3=
EXTT4=
EXTT5=
EXTT6=
EXTT7=
EXTT8=
EXTT9=
PLAYORDER=
